Coordinates
version=1
nRows=27
nColumns=38
inDegrees=no

Units are S.I. units (second, meters, Newtons, ...)
If the header above contains a line with 'inDegrees', this indicates whether rotational values are in degrees (yes) or radians (no).

endheader
time	pelvis_tilt	pelvis_list	pelvis_rotation	pelvis_tx	pelvis_ty	pelvis_tz	hip_flexion_r	hip_adduction_r	hip_rotation_r	knee_angle_r	ankle_angle_r	subtalar_angle_r	mtp_angle_r	hip_flexion_l	hip_adduction_l	hip_rotation_l	knee_angle_l	ankle_angle_l	subtalar_angle_l	mtp_angle_l	lumbar_extension	lumbar_bending	lumbar_rotation	arm_flex_r	arm_add_r	arm_rot_r	elbow_flex_r	pro_sup_r	wrist_flex_r	wrist_dev_r	arm_flex_l	arm_add_l	arm_rot_l	elbow_flex_l	pro_sup_l	wrist_flex_l	wrist_dev_l
20.6	3.03652	1.45929	-1.36224	0.741483	-0.488766	0.952577	-0.0861964	-0.025008	-0.326383	0.195725	-0.0431173	0	0	-0.137749	-0.0498927	-0.18415	0.135768	-0.00717794	0	0	-0.316727	0.0198326	-0.000815076	0.894221	-0.339538	0.553753	1.10266	0	0	0	0.83833	-0.218078	0.455934	1.01577	1.5708	0	0
20.61	-3.11402	1.44014	-1.49481	0.740586	-0.486506	0.95496	-0.12077	-0.0394746	-0.331337	0.181429	-0.0433226	0	0	-0.170479	-0.0320569	-0.172086	0.123344	-0.0170173	0	0	-0.338802	0.00872146	-0.00534535	0.889129	-0.342313	0.552756	1.12019	0	0	0	0.824946	-0.221714	0.441305	1.0358	1.5708	0	0
20.62	3.06623	1.45808	-1.39004	0.742384	-0.485045	0.952722	-0.105283	-0.0228604	-0.32583	0.173487	-0.0443926	0	0	-0.1491	-0.047823	-0.173781	0.127982	-0.00708979	0	0	-0.317073	0.0181036	-0.0050286	0.875297	-0.341515	0.544195	1.13651	0	0	0	0.808401	-0.226566	0.43005	1.05424	1.5708	0	0
20.63	3.0664	1.45991	-1.38705	0.743006	-0.483562	0.952568	-0.111445	-0.0195635	-0.325617	0.162375	-0.0459885	0	0	-0.151357	-0.0487665	-0.171723	0.122983	-0.00751567	0	0	-0.315185	0.0181317	-0.00847403	0.86484	-0.3418	0.53658	1.15316	0	0	0	0.795089	-0.230943	0.419763	1.07319	1.5708	0	0
20.64	3.06563	1.46202	-1.38324	0.743569	-0.482072	0.952358	-0.11721	-0.0163064	-0.324872	0.15137	-0.0475858	0	0	-0.153138	-0.0496551	-0.169289	0.118066	-0.00815461	0	0	-0.312807	0.0180784	-0.0114929	0.853294	-0.342913	0.528396	1.17117	0	0	0	0.781997	-0.234893	0.410332	1.09199	1.5708	0	0
20.65	3.06548	1.46418	-1.38011	0.744085	-0.480588	0.952145	-0.122839	-0.0132252	-0.323903	0.140468	-0.0493745	0	0	-0.154207	-0.0504562	-0.166961	0.114405	-0.00776444	0	0	-0.310331	0.0179532	-0.0142436	0.841455	-0.344708	0.521055	1.18977	0	0	0	0.7687	-0.238296	0.4006	1.11125	1.5708	0	0
20.66	3.0648	1.46555	-1.37641	0.74451	-0.479104	0.951979	-0.129319	-0.0100588	-0.32299	0.129437	-0.0517155	0	0	-0.155742	-0.0513957	-0.164425	0.111467	-0.00704148	0	0	-0.308975	0.0176179	-0.0169951	0.829557	-0.347124	0.51384	1.20881	0	0	0	0.752749	-0.239778	0.416325	1.14931	1.5708	0	0
20.67	3.06345	1.46673	-1.37184	0.744849	-0.477624	0.951812	-0.13572	-0.00693773	-0.322259	0.119063	-0.0537062	0	0	-0.157162	-0.0524569	-0.161566	0.108902	-0.00687395	0	0	-0.307422	0.018091	-0.0193977	0.817795	-0.349871	0.507114	1.22733	0	0	0	0.738774	-0.241985	0.40569	1.16938	1.5708	0	0
20.68	3.061	1.46837	-1.36672	0.745232	-0.476111	0.951597	-0.140926	-0.00403979	-0.321296	0.110033	-0.0551688	0	0	-0.157898	-0.0535031	-0.159022	0.10678	-0.00685675	0	0	-0.304945	0.0188896	-0.0211983	0.806167	-0.352773	0.501802	1.24592	0	0	0	0.726254	-0.245335	0.367068	1.17306	1.5708	0	0
20.69	3.05769	1.46978	-1.36121	0.745618	-0.474627	0.951396	-0.145943	-0.00114056	-0.31959	0.101473	-0.0569336	0	0	-0.158614	-0.0545941	-0.156966	0.105138	-0.00652477	0	0	-0.303138	0.0191629	-0.0230083	0.794949	-0.355807	0.497248	1.26496	0	0	0	0.711528	-0.247348	0.355255	1.19277	1.5708	0	0
20.7	3.05547	1.47076	-1.35704	0.745987	-0.47316	0.951233	-0.15121	0.00162232	-0.317642	0.0931546	-0.0586454	0	0	-0.159789	-0.0555301	-0.154786	0.103586	-0.00616875	0	0	-0.302102	0.0187655	-0.024903	0.783844	-0.358911	0.492397	1.28377	0	0	0	0.695135	-0.249348	0.373841	1.22711	1.5708	0	0
20.71	3.05657	1.47186	-1.35592	0.746329	-0.471685	0.951073	-0.155596	0.00368025	-0.317426	0.0866263	-0.0595838	0	0	-0.160805	-0.0561134	-0.151977	0.102204	-0.00579442	0	0	-0.300367	0.0189452	-0.0265206	0.772776	-0.362009	0.488104	1.30207	0	0	0	0.684736	-0.252718	0.339018	1.22529	1.5708	0	0
20.72	3.05563	1.47299	-1.35331	0.746593	-0.47016	0.950926	-0.160229	0.0058895	-0.315277	0.0793663	-0.0607207	0	0	-0.161995	-0.0566782	-0.149469	0.100516	-0.00566775	0	0	-0.298723	0.018876	-0.0277362	0.760891	-0.36544	0.483206	1.32213	0	0	0	0.671831	-0.253758	0.330325	1.23888	1.5708	0	0
20.73	3.05943	1.47456	-1.35568	0.746849	-0.468685	0.950756	-0.163231	0.00693105	-0.314556	0.0744108	-0.0604111	0	0	-0.162339	-0.0567212	-0.148212	0.0995922	-0.00543648	0	0	-0.29663	0.0181558	-0.0285041	0.748878	-0.368776	0.4782	1.34126	0	0	0	0.660629	-0.255471	0.325427	1.25043	1.5708	0	0
20.74	3.06374	1.47599	-1.35887	0.747084	-0.467227	0.950588	-0.165974	0.00772843	-0.313484	0.0699733	-0.0611669	0	0	-0.162874	-0.0566485	-0.147376	0.0987387	-0.00502472	0	0	-0.294764	0.0168186	-0.0283784	0.735699	-0.372761	0.471978	1.36144	0	0	0	0.647943	-0.256879	0.352084	1.27614	1.5708	0	0
20.75	3.06848	1.4772	-1.36264	0.747342	-0.465853	0.950447	-0.167781	0.0081844	-0.313435	0.0676831	-0.0605819	0	0	-0.163489	-0.056617	-0.146838	0.0980779	-0.00447609	0	0	-0.292916	0.0164968	-0.0278371	0.723728	-0.376606	0.467327	1.37982	0	0	0	0.640954	-0.259899	0.318965	1.27399	1.5708	0	0
20.76	3.07255	1.4784	-1.36598	0.747505	-0.46451	0.95032	-0.169227	0.00849854	-0.312628	0.0658756	-0.0604635	0	0	-0.164014	-0.0565482	-0.147093	0.0976448	-0.00391718	0	0	-0.291445	0.0160524	-0.0270182	0.711463	-0.381384	0.462677	1.39961	0	0	0	0.630561	-0.261557	0.311667	1.28871	1.5708	0	0
20.77	3.07865	1.47908	-1.37073	0.747507	-0.463205	0.950238	-0.170895	0.00849146	-0.313267	0.0648106	-0.0598972	0	0	-0.164998	-0.0563034	-0.146543	0.0973714	-0.00313032	0	0	-0.290511	0.0157778	-0.0264399	0.699606	-0.386509	0.458432	1.41836	0	0	0	0.621642	-0.263627	0.308205	1.30151	1.5708	0	0
20.78	3.08328	1.47967	-1.37429	0.747517	-0.461908	0.950167	-0.17222	0.00852277	-0.313697	0.0643775	-0.0590394	0	0	-0.166185	-0.0561416	-0.146093	0.0968931	-0.00230203	0	0	-0.28961	0.0155271	-0.0253623	0.688465	-0.391523	0.45438	1.43546	0	0	0	0.613509	-0.265422	0.30599	1.31168	1.5708	0	0
20.79	3.08621	1.48013	-1.37626	0.747536	-0.460686	0.950084	-0.173161	0.00864951	-0.314246	0.0647989	-0.0572849	0	0	-0.167251	-0.0562867	-0.145901	0.0966873	-0.00128055	0	0	-0.288941	0.0153759	-0.02421	0.678274	-0.396515	0.450914	1.45203	0	0	0	0.606242	-0.267287	0.304147	1.32008	1.5708	0	0
20.8	3.08692	1.48046	-1.37613	0.74752	-0.459503	0.949983	-0.174081	0.0089307	-0.314845	0.0655039	-0.0550411	0	0	-0.168246	-0.0566472	-0.145775	0.0968388	-0.000169821	0	0	-0.28834	0.0154687	-0.0231741	0.668763	-0.401219	0.44803	1.46842	0	0	0	0.600432	-0.269461	0.305525	1.32548	1.5708	0	0
20.81	3.0865	1.48099	-1.37519	0.747436	-0.45832	0.949862	-0.174818	0.0091355	-0.314853	0.0659845	-0.0536561	0	0	-0.169237	-0.0568157	-0.145793	0.0966539	0.00102188	0	0	-0.287163	0.015243	-0.0220046	0.659496	-0.405412	0.444765	1.48324	0	0	0	0.592493	-0.272634	0.339991	1.3442	1.5708	0	0
20.82	3.09225	1.48106	-1.38004	0.747369	-0.457218	0.949767	-0.176366	0.00901511	-0.315103	0.0658361	-0.052557	0	0	-0.170751	-0.0564577	-0.144746	0.0959976	0.00159302	0	0	-0.286411	0.0154611	-0.0223503	0.652512	-0.408028	0.443472	1.49614	0	0	0	0.591105	-0.276087	0.310936	1.33463	1.5708	0	0
20.83	3.09627	1.48125	-1.38322	0.747226	-0.456185	0.949657	-0.177719	0.00887509	-0.315016	0.0656368	-0.0513195	0	0	-0.171917	-0.0561946	-0.143821	0.0957272	0.00227098	0	0	-0.285501	0.0155123	-0.0224228	0.645091	-0.411174	0.442051	1.5097	0	0	0	0.586727	-0.278802	0.312363	1.33957	1.5708	0	0
20.84	3.1016	1.48161	-1.38794	0.747146	-0.455173	0.949515	-0.179017	0.00862315	-0.314687	0.0651881	-0.0502458	0	0	-0.172564	-0.0559146	-0.143803	0.0961882	0.003595	0	0	-0.284071	0.0151959	-0.0224017	0.637719	-0.413524	0.440549	1.52115	0	0	0	0.582548	-0.282263	0.315396	1.34489	1.5708	0	0
20.85	3.10703	1.48196	-1.39271	0.747006	-0.454202	0.949347	-0.180676	0.00842342	-0.314269	0.0640971	-0.0494296	0	0	-0.1731	-0.0555247	-0.143451	0.0968425	0.0051488	0	0	-0.282428	0.0150623	-0.0223764	0.629945	-0.415705	0.438707	1.53219	0	0	0	0.577631	-0.285949	0.315807	1.35173	1.5708	0	0
20.86	3.10316	1.48337	-1.3887	0.746763	-0.453188	0.949109	-0.181799	0.00892688	-0.31287	0.0614235	-0.0491624	0	0	-0.172778	-0.0554427	-0.14308	0.097028	0.00653961	0	0	-0.281559	0.0165163	-0.0282712	0.628022	-0.413907	0.444035	1.54116	0	0	0	0.549432	-0.262608	0.122812	1.45262	0.968049	0	0
